<svg version="1.1" id="Layer_1" xmlns="http://www.w3.org/2000/svg" xmlns:xlink="http://www.w3.org/1999/xlink" x="0px" y="0px"
	 width="100%" viewBox="0 0 3500 2000" enable-background="new 0 0 3500 2000" xml:space="preserve">
<path fill="#FFFFFF" opacity="1.000000" stroke="none" 
	d="
M2266.000000,2002.000000 
	C1510.666626,2002.000000 756.333313,2002.000000 2.000000,2002.000000 
	C2.000000,1335.333374 2.000000,668.666687 2.000000,2.000000 
	C1168.666626,2.000000 2335.333252,2.000000 3502.000000,2.000000 
	C3502.000000,668.666687 3502.000000,1335.333374 3502.000000,2002.000000 
	C3090.333252,2002.000000 2678.666748,2002.000000 2266.000000,2002.000000 
M2984.284668,878.188232 
	C2984.148926,864.783325 2984.013184,851.378418 2984.167480,836.177673 
	C2984.075195,830.113098 2983.982910,824.048462 2984.217773,816.135986 
	C2984.242432,671.749023 2984.268311,527.362061 2984.275635,382.975098 
	C2984.275879,381.321228 2984.036133,379.667358 2984.313232,376.233612 
	C2984.182861,370.161804 2984.052246,364.089996 2984.327393,356.178162 
	C2984.153320,340.095703 2983.979248,324.013275 2984.059082,306.079926 
	C2984.148193,264.749481 2984.437744,223.418137 2984.256836,182.088852 
	C2984.134277,154.080948 2964.499023,130.844757 2936.944580,125.700294 
	C2930.786377,124.550537 2924.378174,124.368858 2918.084961,124.368401 
	C2141.790039,124.312523 1365.495239,124.315529 589.200439,124.315712 
	C586.533875,124.315712 583.866882,124.285835 581.200867,124.325043 
	C549.337891,124.793655 523.232727,148.894058 522.601257,180.759338 
	C521.776062,222.398819 522.661011,264.072205 522.285156,307.576660 
	C522.460449,325.142548 522.635803,342.708435 522.590027,362.100067 
	C522.505981,402.091858 522.400574,442.083618 522.360962,482.075470 
	C522.355042,488.058136 522.657715,494.041138 522.448242,501.862152 
	C522.568115,517.899719 522.687988,533.937317 522.391418,551.809387 
	C522.416809,642.123291 522.439148,732.437134 522.481445,822.751038 
	C522.482849,825.745728 522.686768,828.740356 522.265503,833.578735 
	C522.439148,851.808167 522.612854,870.037659 522.566711,890.093994 
	C522.519653,961.374268 522.469177,1032.654541 522.443604,1103.934814 
	C522.442871,1105.922363 522.708313,1107.909790 522.404358,1111.737183 
	C522.547485,1133.192871 522.690552,1154.648682 522.493530,1177.935547 
	C522.466980,1179.268555 522.417297,1180.601440 522.417175,1181.934448 
	C522.401611,1337.933716 522.387573,1493.933105 522.395752,1649.932373 
	C522.395874,1652.588135 522.668335,1655.243774 522.384155,1659.706299 
	C522.516602,1667.076172 522.649048,1674.445923 522.297974,1683.655273 
	C522.469910,1697.855591 522.641785,1712.055908 522.573914,1728.081787 
	C522.367004,1746.052612 522.160034,1764.023438 520.095764,1781.765503 
	C505.402527,1781.885986 490.709290,1782.006470 474.163208,1781.812500 
	C462.786530,1781.909058 451.409882,1782.005615 438.174408,1781.807007 
	C425.454529,1781.888184 412.734650,1781.969360 398.148132,1781.843262 
	C386.105103,1781.916382 374.062073,1781.989502 360.156281,1781.904297 
	C350.776428,1781.954346 341.396545,1782.004517 330.142517,1781.946411 
	C310.082794,1781.984497 290.023102,1782.022461 268.368835,1781.944214 
	C266.239929,1781.974121 264.111023,1782.004028 260.378418,1781.867065 
	C258.238800,1781.946167 256.099182,1782.025391 252.464478,1781.868042 
	C250.965057,1781.964966 249.465622,1782.061768 246.222961,1781.815674 
	C243.278259,1781.815674 240.333557,1781.815674 236.844849,1781.815674 
	C236.844849,1801.195923 236.844849,1820.026611 236.844849,1839.522705 
	C239.151978,1840.191895 241.638626,1840.913208 245.079193,1842.698120 
	C266.590668,1849.180298 287.930237,1856.330078 309.669464,1861.927856 
	C326.238525,1866.194336 343.314453,1868.492065 361.777679,1872.034546 
	C369.206604,1873.336060 376.587738,1875.131836 384.072571,1875.854858 
	C419.556427,1879.282593 455.113007,1880.574585 490.790741,1880.568237 
	C1330.704956,1880.419189 2170.619141,1880.471802 3010.533447,1880.367188 
	C3037.490967,1880.363770 3064.469482,1879.537109 3091.399170,1878.268188 
	C3111.502197,1877.321045 3131.612793,1875.565674 3152.738037,1871.022095 
	C3191.426270,1865.066528 3229.068604,1855.096313 3265.734619,1841.437622 
	C3267.342529,1840.838623 3268.546631,1839.156372 3270.230469,1836.126465 
	C3270.249512,1825.245239 3270.275391,1814.364014 3270.284424,1803.482788 
	C3270.289307,1797.547607 3270.234863,1791.612427 3270.268555,1785.677490 
	C3270.285645,1782.709839 3268.992432,1781.445557 3264.476562,1781.763916 
	C3262.378418,1781.899292 3260.280029,1782.034668 3256.801514,1781.854980 
	C3255.859863,1781.880859 3254.918457,1781.906738 3252.104980,1781.918579 
	C3232.734863,1781.951172 3213.364502,1781.983765 3192.137939,1781.941772 
	C3183.428223,1781.953491 3174.718750,1781.965210 3164.176270,1781.886963 
	C3157.447021,1781.937012 3150.717529,1781.987061 3142.141113,1781.897827 
	C3134.088135,1781.957031 3126.035400,1782.016235 3116.125244,1781.883789 
	C3106.078125,1781.947144 3096.031006,1782.010620 3084.122070,1781.853516 
	C3050.941162,1781.882324 3017.760010,1781.911011 2984.410889,1780.079712 
	C2984.218750,1762.734985 2984.026367,1745.390381 2984.281982,1726.210205 
	C2984.147461,1711.467407 2984.012939,1696.724487 2984.182373,1680.175293 
	C2984.088135,1673.442993 2983.993652,1666.710571 2984.193848,1658.126221 
	C2984.226562,1655.797363 2984.287842,1653.468506 2984.287842,1651.139648 
	C2984.288330,1496.083862 2984.286133,1341.028198 2984.262451,1185.972412 
	C2984.261963,1182.654663 2984.003662,1179.337036 2984.287354,1174.182861 
	C2984.145020,1152.115112 2984.002686,1130.047363 2984.187256,1106.132080 
	C2984.218018,1039.075317 2984.252930,972.018494 2984.261475,904.961731 
	C2984.261719,902.648071 2983.997070,900.334473 2984.270264,896.259155 
	C2984.137695,890.848572 2984.004883,885.437988 2984.284668,878.188232 
z"/>
<path fill="#78797D" opacity="1.000000" stroke="none" 
	d="
M247.966187,1782.158569 
	C249.465622,1782.061768 250.965057,1781.964966 253.225037,1782.915405 
	C253.991104,1799.884033 253.889069,1815.806396 254.052338,1831.726074 
	C254.122620,1838.577881 254.411789,1838.613647 263.004089,1839.789429 
	C265.924255,1839.737061 268.047546,1839.630371 271.088898,1839.650146 
	C291.978058,1839.673706 311.949127,1839.571045 332.845703,1839.650269 
	C343.149597,1839.732910 352.527985,1839.633545 362.836853,1839.688965 
	C375.806763,1839.776978 387.846222,1839.710205 400.822266,1839.765869 
	C414.472961,1839.883667 427.187103,1839.879150 440.844727,1839.936890 
	C452.527527,1840.001953 463.266785,1840.004761 474.942993,1840.016357 
	C523.918762,1840.021118 571.957642,1840.017090 620.934143,1840.015381 
	C650.581238,1840.011719 679.290588,1840.005859 708.937317,1840.005615 
	C746.588745,1839.988159 783.302856,1839.964966 820.953064,1839.960449 
	C867.272461,1839.940186 912.655762,1839.901245 958.971802,1839.905884 
	C1003.282959,1839.894165 1046.661377,1839.838745 1090.972778,1839.843140 
	C1139.289673,1839.839111 1186.673584,1839.775391 1234.988159,1839.788574 
	C1262.096558,1839.901855 1288.274536,1839.994141 1314.452271,1839.956787 
	C1335.653076,1839.926514 1356.853638,1839.740234 1378.982666,1839.725464 
	C1444.655762,1839.883789 1509.400391,1839.943726 1574.145142,1839.976318 
	C1576.127319,1839.977295 1578.109741,1839.691895 1581.014648,1839.665894 
	C1700.935303,1839.827759 1819.933472,1839.864868 1938.931519,1839.886475 
	C1940.592896,1839.886841 1942.254150,1839.693115 1944.847656,1839.736572 
	C2026.176147,1839.883057 2106.572754,1839.883423 2186.969238,1839.871948 
	C2187.961914,1839.871826 2188.954834,1839.717896 2190.883301,1839.768433 
	C2233.194580,1839.841064 2274.570068,1839.781006 2316.881836,1839.818359 
	C2361.866455,1839.877441 2405.915039,1839.839111 2450.900879,1839.872559 
	C2501.879639,1839.919922 2551.921631,1839.895630 2602.903564,1839.928711 
	C2647.222656,1839.971924 2690.601562,1839.957520 2734.918457,1839.972168 
	C2776.571045,1839.999146 2817.285645,1839.997192 2858.937256,1840.007812 
	C2891.916260,1840.016968 2923.958252,1840.013306 2956.937256,1840.014404 
	C3001.259277,1840.004639 3044.643799,1839.990112 3088.958496,1839.978516 
	C3099.286377,1839.927002 3108.684326,1839.872681 3119.001465,1839.867188 
	C3127.985840,1839.822388 3136.051025,1839.728882 3145.019043,1839.732056 
	C3152.654541,1839.701416 3159.386963,1839.574097 3167.031738,1839.580078 
	C3176.658203,1839.616577 3185.372559,1839.520020 3195.006348,1839.573853 
	C3212.439697,1839.788940 3228.953613,1839.929077 3245.466553,1839.847534 
	C3248.349121,1839.833252 3251.227295,1838.885864 3254.920898,1838.165283 
	C3256.530029,1834.949829 3257.965088,1831.949097 3258.013916,1828.926025 
	C3258.265625,1813.343750 3258.161865,1797.755981 3258.182129,1782.170044 
	C3260.280029,1782.034668 3262.378418,1781.899292 3265.234863,1782.853027 
	C3265.989258,1799.420410 3265.944580,1814.898926 3266.016357,1830.376709 
	C3266.030518,1833.466064 3264.946289,1837.356934 3269.938721,1837.978760 
	C3268.546631,1839.156372 3267.342529,1840.838623 3265.734619,1841.437622 
	C3229.068604,1855.096313 3191.426270,1865.066528 3151.210449,1870.174072 
	C3145.425781,1868.914185 3141.168701,1868.141602 3136.911377,1868.141357 
	C2215.663330,1868.088745 1294.415039,1868.090698 373.166962,1868.092896 
	C370.167694,1868.092896 367.095978,1867.747925 364.199036,1868.301514 
	C362.694946,1868.588867 361.499695,1870.492432 360.164917,1871.665771 
	C343.314453,1868.492065 326.238525,1866.194336 309.669464,1861.927856 
	C287.930237,1856.330078 266.590668,1849.180298 244.951294,1841.504150 
	C248.194641,1837.350220 248.013275,1833.404419 247.997513,1829.416992 
	C247.935226,1813.664429 247.968399,1797.911377 247.966187,1782.158569 
z"/>
<path fill="#353438" opacity="1.000000" stroke="none" 
	d="
M360.971313,1871.850220 
	C361.499695,1870.492432 362.694946,1868.588867 364.199036,1868.301514 
	C367.095978,1867.747925 370.167694,1868.092896 373.166962,1868.092896 
	C1294.415039,1868.090698 2215.663330,1868.088745 3136.911377,1868.141357 
	C3141.168701,1868.141602 3145.425781,1868.914185 3150.444824,1869.842041 
	C3131.612793,1875.565674 3111.502197,1877.321045 3091.399170,1878.268188 
	C3064.469482,1879.537109 3037.490967,1880.363770 3010.533447,1880.367188 
	C2170.619141,1880.471802 1330.704956,1880.419189 490.790741,1880.568237 
	C455.113007,1880.574585 419.556427,1879.282593 384.072571,1875.854858 
	C376.587738,1875.131836 369.206604,1873.336060 360.971313,1871.850220 
z"/>
<path fill="#3F3F3F" opacity="1.000000" stroke="none" 
	d="
M522.810181,305.731018 
	C522.661011,264.072205 521.776062,222.398819 522.601257,180.759338 
	C523.232727,148.894058 549.337891,124.793655 581.200867,124.325043 
	C583.866882,124.285835 586.533875,124.315712 589.200439,124.315712 
	C1365.495239,124.315529 2141.790039,124.312523 2918.084961,124.368401 
	C2924.378174,124.368858 2930.786377,124.550537 2936.944580,125.700294 
	C2964.499023,130.844757 2984.134277,154.080948 2984.256836,182.088852 
	C2984.437744,223.418137 2984.148193,264.749481 2983.158691,306.994141 
	C2980.195068,307.942047 2978.132324,307.975739 2975.577148,307.444489 
	C2975.341064,302.625488 2975.810791,298.371887 2975.819824,294.117340 
	C2975.898438,257.453705 2976.340088,220.782974 2975.774170,184.128265 
	C2975.312988,154.264542 2954.165527,133.822510 2925.105957,133.822159 
	C2144.166504,133.812714 1363.226929,133.812714 582.287476,133.822647 
	C552.636719,133.823013 531.864502,154.662994 531.844666,184.413376 
	C531.819763,221.743729 531.895447,259.074158 531.870483,296.404510 
	C531.868225,299.710724 531.443054,303.016693 530.513428,306.269897 
	C527.478394,306.055023 525.144287,305.893005 522.810181,305.731018 
z"/>
<path fill="#87888D" opacity="1.000000" stroke="none" 
	d="
M619.996460,1840.013062 
	C571.957642,1840.017090 523.918762,1840.021118 474.961670,1839.169434 
	C474.697235,1832.461914 475.784210,1826.619751 475.916199,1820.756226 
	C476.205902,1807.885498 476.012329,1795.004028 476.016052,1782.126953 
	C490.709290,1782.006470 505.402527,1781.885986 521.889771,1781.794678 
	C526.571167,1781.736328 529.458435,1781.648560 533.255615,1781.626221 
	C560.111572,1781.830322 586.057556,1781.969116 612.001953,1783.038452 
	C612.000244,1794.152832 612.172119,1804.340576 611.949036,1814.519531 
	C611.748291,1823.676270 610.923828,1832.881836 619.828918,1839.063843 
	C620.014832,1839.192871 619.946350,1839.688354 619.996460,1840.013062 
z"/>
<path fill="#87888D" opacity="1.000000" stroke="none" 
	d="
M3088.028564,1839.975586 
	C3044.643799,1839.990112 3001.259277,1840.004639 2957.067871,1839.295166 
	C2956.877197,1837.843506 2957.350830,1836.739258 2958.129883,1836.445068 
	C2967.913086,1832.751343 2967.962402,1832.781494 2967.990723,1822.545166 
	C2968.028076,1809.070190 2967.997803,1795.594849 2968.737305,1781.951660 
	C2971.491699,1781.636719 2973.505127,1781.489868 2976.411377,1781.513428 
	C2979.729004,1781.769287 2982.154053,1781.854492 2984.579102,1781.939697 
	C3017.760010,1781.911011 3050.941162,1781.882324 3085.062012,1782.895020 
	C3086.754395,1802.613403 3084.199463,1821.409912 3088.028564,1839.975586 
z"/>
<path fill="#3F3F3F" opacity="1.000000" stroke="none" 
	d="
M522.813782,1657.899658 
	C522.668335,1655.243774 522.395874,1652.588135 522.395752,1649.932373 
	C522.387573,1493.933105 522.401611,1337.933716 522.417175,1181.934448 
	C522.417297,1180.601440 522.466980,1179.268555 523.370728,1177.020996 
	C526.604736,1176.025879 528.961548,1175.945312 531.527283,1176.794556 
	C531.783752,1179.054932 531.873230,1180.385376 531.873230,1181.715942 
	C531.872925,1337.542480 531.869141,1493.369141 531.835876,1649.195679 
	C531.835266,1652.175171 531.481873,1655.154663 530.586304,1658.107422 
	C527.524292,1658.020264 525.169006,1657.959961 522.813782,1657.899658 
z"/>
<path fill="#3F3F3F" opacity="1.000000" stroke="none" 
	d="
M2983.865723,1176.019287 
	C2984.003662,1179.337036 2984.261963,1182.654663 2984.262451,1185.972412 
	C2984.286133,1341.028198 2984.288330,1496.083862 2984.287842,1651.139648 
	C2984.287842,1653.468506 2984.226562,1655.797363 2983.276367,1659.066162 
	C2980.304443,1660.034180 2978.250244,1660.062378 2976.059570,1659.152710 
	C2975.913330,1505.113281 2975.899902,1352.011719 2975.902344,1198.910156 
	C2975.902344,1191.259399 2976.039795,1183.608643 2976.888672,1175.971191 
	C2979.731201,1175.996094 2981.798340,1176.007690 2983.865723,1176.019287 
z"/>
<path fill="#D1D2D7" opacity="1.000000" stroke="none" 
	d="
M331.920227,1839.468262 
	C311.949127,1839.571045 291.978058,1839.673706 271.039185,1838.758423 
	C270.035431,1819.180420 269.999420,1800.620361 269.963379,1782.060425 
	C290.023102,1782.022461 310.082794,1781.984497 331.074036,1782.932129 
	C331.977142,1802.434570 331.948669,1820.951416 331.920227,1839.468262 
z"/>
<path fill="#3F3F3F" opacity="1.000000" stroke="none" 
	d="
M2983.908447,378.013458 
	C2984.036133,379.667358 2984.275879,381.321228 2984.275635,382.975098 
	C2984.268311,527.362061 2984.242432,671.749023 2983.282715,817.068481 
	C2980.290771,818.021240 2978.233887,818.041565 2976.060547,817.124268 
	C2975.926514,672.091187 2975.907471,527.995605 2975.904785,383.900085 
	C2975.904785,381.909241 2976.107178,379.918396 2976.984131,377.938934 
	C2979.805176,377.971375 2981.856689,377.992401 2983.908447,378.013458 
z"/>
<path fill="#D1D2D7" opacity="1.000000" stroke="none" 
	d="
M3254.107422,1838.369629 
	C3251.227295,1838.885864 3248.349121,1839.833252 3245.466553,1839.847534 
	C3228.953613,1839.929077 3212.439697,1839.788940 3194.983398,1838.689453 
	C3194.025391,1819.108521 3194.009766,1800.562500 3193.994385,1782.016479 
	C3213.364502,1781.983765 3232.734863,1781.951172 3253.038574,1782.869873 
	C3254.017334,1802.004028 3254.062500,1820.186768 3254.107422,1838.369629 
z"/>
<path fill="#3F3F3F" opacity="1.000000" stroke="none" 
	d="
M522.796326,831.734985 
	C522.686768,828.740356 522.482849,825.745728 522.481445,822.751038 
	C522.439148,732.437134 522.416809,642.123291 523.318298,550.885620 
	C526.642029,549.998047 529.038940,550.034302 531.574829,550.994385 
	C531.788208,643.085083 531.867920,734.252075 531.905884,825.419006 
	C531.906799,827.719910 531.448181,830.020874 530.502441,832.273315 
	C527.466125,832.061462 525.131226,831.898193 522.796326,831.734985 
z"/>
<path fill="#A9AAAF" opacity="1.000000" stroke="none" 
	d="
M439.901245,1839.874634 
	C427.187103,1839.879150 414.472961,1839.883667 400.854126,1838.866089 
	C399.971222,1819.246216 399.992981,1800.648438 400.014771,1782.050537 
	C412.734650,1781.969360 425.454529,1781.888184 439.092957,1782.883057 
	C439.974731,1802.597534 439.937988,1821.236084 439.901245,1839.874634 
z"/>
<path fill="#3F3F3F" opacity="1.000000" stroke="none" 
	d="
M522.849670,1109.897339 
	C522.708313,1107.909790 522.442871,1105.922363 522.443604,1103.934814 
	C522.469177,1032.654541 522.519653,961.374268 523.377441,889.161804 
	C526.516235,888.046753 528.844238,887.863831 531.450256,888.607971 
	C531.791687,890.530762 531.910706,891.526611 531.910645,892.522400 
	C531.908813,962.746155 531.902710,1032.969849 531.864380,1103.193604 
	C531.863098,1105.507812 531.526917,1107.821777 530.638794,1110.102783 
	C527.570312,1110.012329 525.210022,1109.954834 522.849670,1109.897339 
z"/>
<path fill="#B9BABF" opacity="1.000000" stroke="none" 
	d="
M399.081451,1781.947021 
	C399.992981,1800.648438 399.971222,1819.246216 399.917572,1838.743774 
	C387.846222,1839.710205 375.806763,1839.776978 362.863434,1838.797119 
	C361.979401,1819.187866 361.999237,1800.625244 362.019043,1782.062622 
	C374.062073,1781.989502 386.105103,1781.916382 399.081451,1781.947021 
z"/>
<path fill="#929398" opacity="1.000000" stroke="none" 
	d="
M440.844757,1839.936890 
	C439.937988,1821.236084 439.974731,1802.597534 440.022339,1783.030640 
	C451.409882,1782.005615 462.786530,1781.909058 475.089630,1781.969727 
	C476.012329,1795.004028 476.205902,1807.885498 475.916199,1820.756226 
	C475.784210,1826.619751 474.697235,1832.461914 474.024750,1839.160645 
	C463.266785,1840.004761 452.527527,1840.001953 440.844757,1839.936890 
z"/>
<path fill="#999AA0" opacity="1.000000" stroke="none" 
	d="
M3088.958496,1839.978516 
	C3084.199463,1821.409912 3086.754395,1802.613403 3085.993164,1783.005249 
	C3096.031006,1782.010620 3106.078125,1781.947144 3117.062988,1782.910156 
	C3118.027832,1802.563965 3118.055176,1821.191162 3118.082520,1839.818481 
	C3108.684326,1839.872681 3099.286377,1839.927002 3088.958496,1839.978516 
z"/>
<path fill="#C6C7CC" opacity="1.000000" stroke="none" 
	d="
M361.087677,1781.983398 
	C361.999237,1800.625244 361.979401,1819.187866 361.932983,1838.642334 
	C352.527985,1839.633545 343.149597,1839.732910 332.845703,1839.650269 
	C331.948669,1820.951416 331.977142,1802.434570 332.011139,1782.986206 
	C341.396545,1782.004517 350.776428,1781.954346 361.087677,1781.983398 
z"/>
<path fill="#3F3F3F" opacity="1.000000" stroke="none" 
	d="
M2983.855957,898.020813 
	C2983.997070,900.334473 2984.261719,902.648071 2984.261475,904.961731 
	C2984.252930,972.018494 2984.218018,1039.075317 2983.249023,1107.058105 
	C2980.243408,1108.003052 2978.176025,1108.021851 2976.002197,1107.104248 
	C2975.894775,1064.988403 2975.866699,1023.809021 2975.902100,982.629700 
	C2975.926514,954.405884 2976.039062,926.182129 2976.886719,897.972168 
	C2979.726074,897.997620 2981.791016,898.009216 2983.855957,898.020813 
z"/>
<path fill="#C6C7CC" opacity="1.000000" stroke="none" 
	d="
M3193.066162,1781.979126 
	C3194.009766,1800.562500 3194.025391,1819.108521 3194.063721,1838.539062 
	C3185.372559,1839.520020 3176.658203,1839.616577 3167.001953,1838.697388 
	C3166.043213,1819.113281 3166.026123,1800.545166 3166.009033,1781.976929 
	C3174.718750,1781.965210 3183.428223,1781.953491 3193.066162,1781.979126 
z"/>
<path fill="#A9AAAF" opacity="1.000000" stroke="none" 
	d="
M3119.001465,1839.867188 
	C3118.055176,1821.191162 3118.027832,1802.563965 3117.991455,1783.005981 
	C3126.035400,1782.016235 3134.088135,1781.957031 3143.072998,1782.901367 
	C3144.041992,1802.481689 3144.079102,1821.058472 3144.116211,1839.635376 
	C3136.051025,1839.728882 3127.985840,1839.822388 3119.001465,1839.867188 
z"/>
<path fill="#3F3F3F" opacity="1.000000" stroke="none" 
	d="
M522.817627,500.023987 
	C522.657715,494.041138 522.355042,488.058136 522.360962,482.075470 
	C522.400574,442.083618 522.505981,402.091858 523.401733,361.175110 
	C526.542175,360.059326 528.870850,359.868500 531.472595,360.606598 
	C531.773987,385.765289 531.861267,409.995148 531.813293,434.224762 
	C531.769897,456.126587 531.578674,478.028168 530.732910,499.945862 
	C527.614624,499.982605 525.216125,500.003296 522.817627,500.023987 
z"/>
<path fill="#B9BABF" opacity="1.000000" stroke="none" 
	d="
M3145.019287,1839.732056 
	C3144.079102,1821.058472 3144.041992,1802.481689 3143.996582,1782.970947 
	C3150.717529,1781.987061 3157.447021,1781.937012 3165.092773,1781.931885 
	C3166.026123,1800.545166 3166.043213,1819.113281 3166.089844,1838.564209 
	C3159.386963,1839.574097 3152.654541,1839.701416 3145.019287,1839.732056 
z"/>
<path fill="#656564" opacity="1.000000" stroke="none" 
	d="
M247.094574,1781.987061 
	C247.968399,1797.911377 247.935226,1813.664429 247.997513,1829.416992 
	C248.013275,1833.404419 248.194641,1837.350220 244.474335,1840.972290 
	C241.638626,1840.913208 239.151978,1840.191895 236.844849,1839.522705 
	C236.844849,1820.026611 236.844849,1801.195923 236.844849,1781.815674 
	C240.333557,1781.815674 243.278259,1781.815674 247.094574,1781.987061 
z"/>
<path fill="#535352" opacity="1.000000" stroke="none" 
	d="
M522.627014,1110.817261 
	C525.210022,1109.954834 527.570312,1110.012329 530.778076,1111.021729 
	C531.523193,1133.270630 531.420837,1154.567627 531.318481,1175.864746 
	C528.961548,1175.945312 526.604736,1176.025879 523.540771,1176.105469 
	C522.690552,1154.648682 522.547485,1133.192871 522.627014,1110.817261 
z"/>
<path fill="#4B4B4A" opacity="1.000000" stroke="none" 
	d="
M532.345764,1781.560913 
	C529.458435,1781.648560 526.571167,1781.736328 522.818481,1781.909180 
	C522.160034,1764.023438 522.367004,1746.052612 523.390625,1727.153687 
	C526.526245,1726.070068 528.845093,1725.914429 531.431030,1726.680664 
	C531.914001,1745.588623 532.129883,1763.574829 532.345764,1781.560913 
z"/>
<path fill="#757575" opacity="1.000000" stroke="none" 
	d="
M531.172302,887.680969 
	C528.844238,887.863831 526.516235,888.046753 523.487366,888.248352 
	C522.612854,870.037659 522.439148,851.808167 522.530884,832.656860 
	C525.131226,831.898193 527.466125,832.061462 530.577759,833.185425 
	C531.293762,851.991089 531.233032,869.835999 531.172302,887.680969 
z"/>
<path fill="#535352" opacity="1.000000" stroke="none" 
	d="
M2976.108887,1108.040527 
	C2978.176025,1108.021851 2980.243408,1108.003052 2983.085449,1107.981934 
	C2984.002686,1130.047363 2984.145020,1152.115112 2984.076660,1175.101074 
	C2981.798340,1176.007690 2979.731201,1175.996094 2976.820557,1175.039795 
	C2976.021240,1152.076782 2976.065186,1130.058716 2976.108887,1108.040527 
z"/>
<path fill="#757575" opacity="1.000000" stroke="none" 
	d="
M531.199585,359.677673 
	C528.870850,359.868500 526.542175,360.059326 523.512268,360.262268 
	C522.635803,342.708435 522.460449,325.142548 522.547668,306.653839 
	C525.144287,305.893005 527.478394,306.055023 530.591675,307.181763 
	C531.313721,325.323517 531.256653,342.500610 531.199585,359.677673 
z"/>
<path fill="#353438" opacity="1.000000" stroke="none" 
	d="
M522.632935,500.943054 
	C525.216125,500.003296 527.614624,499.982605 530.896484,500.878906 
	C531.665100,517.887451 531.550415,533.979004 531.435791,550.070557 
	C529.038940,550.034302 526.642029,549.998047 523.526489,549.968384 
	C522.687988,533.937317 522.568115,517.899719 522.632935,500.943054 
z"/>
<path fill="#B9BABF" opacity="1.000000" stroke="none" 
	d="
M269.166107,1782.002319 
	C269.999420,1800.620361 270.035431,1819.180420 270.121155,1838.632080 
	C268.047546,1839.630371 265.924255,1839.737061 262.949860,1838.881104 
	C262.059875,1819.290405 262.020996,1800.662109 261.982117,1782.033936 
	C264.111023,1782.004028 266.239929,1781.974121 269.166107,1782.002319 
z"/>
<path fill="#999AA0" opacity="1.000000" stroke="none" 
	d="
M261.180267,1781.950439 
	C262.020996,1800.662109 262.059875,1819.290405 262.153015,1838.826904 
	C254.411789,1838.613647 254.122620,1838.577881 254.052338,1831.726074 
	C253.889069,1815.806396 253.991104,1799.884033 253.972595,1783.033691 
	C256.099182,1782.025391 258.238800,1781.946167 261.180267,1781.950439 
z"/>
<path fill="#78797D" opacity="1.000000" stroke="none" 
	d="
M531.164001,1725.758789 
	C528.845093,1725.914429 526.526245,1726.070068 523.510498,1726.240967 
	C522.641785,1712.055908 522.469910,1697.855591 523.233765,1682.749512 
	C526.482788,1681.949585 528.796021,1682.055420 531.237732,1683.082764 
	C531.298828,1697.922485 531.231384,1711.840698 531.164001,1725.758789 
z"/>
<path fill="#4B4B4A" opacity="1.000000" stroke="none" 
	d="
M2984.495117,1781.009766 
	C2982.154053,1781.854492 2979.729004,1781.769287 2976.507812,1780.629272 
	C2975.848389,1762.363159 2975.985352,1745.151611 2976.893311,1727.964844 
	C2979.720947,1728.008301 2981.777588,1728.026978 2983.834229,1728.045654 
	C2984.026367,1745.390381 2984.218750,1762.734985 2984.495117,1781.009766 
z"/>
<path fill="#6D6D6D" opacity="1.000000" stroke="none" 
	d="
M2976.069336,308.009460 
	C2978.132324,307.975739 2980.195068,307.942047 2983.031738,307.919556 
	C2983.979248,324.013275 2984.153320,340.095703 2983.356934,357.079956 
	C2980.338867,357.961609 2978.291260,357.941498 2976.139404,356.995239 
	C2976.046631,340.049194 2976.058105,324.029327 2976.069336,308.009460 
z"/>
<path fill="#6D6D6D" opacity="1.000000" stroke="none" 
	d="
M2984.058105,1727.127930 
	C2981.777588,1728.026978 2979.720947,1728.008301 2976.817871,1727.035156 
	C2976.041504,1711.400391 2976.111572,1696.720093 2976.951172,1682.028809 
	C2979.773682,1682.005859 2981.825928,1681.993774 2983.878418,1681.981689 
	C2984.012939,1696.724487 2984.147461,1711.467407 2984.058105,1727.127930 
z"/>
<path fill="#6D6D6D" opacity="1.000000" stroke="none" 
	d="
M2983.877197,837.973511 
	C2984.013184,851.378418 2984.148926,864.783325 2983.408691,879.035767 
	C2980.398193,879.240234 2978.263916,878.597168 2976.035645,877.025146 
	C2976.008301,864.080627 2976.074707,852.065063 2976.809570,839.968140 
	C2979.611328,839.249084 2981.744141,838.611328 2983.877197,837.973511 
z"/>
<path fill="#535352" opacity="1.000000" stroke="none" 
	d="
M531.109192,1682.161133 
	C528.796021,1682.055420 526.482788,1681.949585 523.475525,1681.829834 
	C522.649048,1674.445923 522.516602,1667.076172 522.598999,1658.802979 
	C525.169006,1657.959961 527.524292,1658.020264 530.738037,1659.012695 
	C531.434082,1667.350220 531.271606,1674.755737 531.109192,1682.161133 
z"/>
<path fill="#C6C7CC" opacity="1.000000" stroke="none" 
	d="
M3254.921143,1838.165283 
	C3254.062500,1820.186768 3254.017334,1802.004028 3253.974609,1782.876953 
	C3254.918457,1781.906738 3255.859863,1781.880859 3257.491699,1782.012451 
	C3258.161865,1797.755981 3258.265625,1813.343750 3258.013916,1828.926025 
	C3257.965088,1831.949097 3256.530029,1834.949829 3254.921143,1838.165283 
z"/>
<path fill="#5C5C5C" opacity="1.000000" stroke="none" 
	d="
M3270.084473,1837.052490 
	C3264.946289,1837.356934 3266.030518,1833.466064 3266.016357,1830.376709 
	C3265.944580,1814.898926 3265.989258,1799.420410 3266.008301,1783.010498 
	C3268.992432,1781.445557 3270.285645,1782.709839 3270.268555,1785.677490 
	C3270.234863,1791.612427 3270.289307,1797.547607 3270.284424,1803.482788 
	C3270.275391,1814.364014 3270.249512,1825.245239 3270.084473,1837.052490 
z"/>
<path fill="#5C5C5C" opacity="1.000000" stroke="none" 
	d="
M2984.030273,1681.078491 
	C2981.825928,1681.993774 2979.773682,1682.005859 2976.801270,1681.120361 
	C2975.986084,1673.511963 2976.090820,1666.801270 2976.195801,1660.090576 
	C2978.250244,1660.062378 2980.304443,1660.034180 2983.129150,1659.992188 
	C2983.993652,1666.710571 2984.088135,1673.442993 2984.030273,1681.078491 
z"/>
<path fill="#535352" opacity="1.000000" stroke="none" 
	d="
M2984.022461,837.075562 
	C2981.744141,838.611328 2979.611328,839.249084 2976.660645,839.058105 
	C2975.954102,831.506897 2976.065430,824.784424 2976.176758,818.061890 
	C2978.233887,818.041565 2980.290771,818.021240 2983.119141,817.992432 
	C2983.982910,824.048462 2984.075195,830.113098 2984.022461,837.075562 
z"/>
<path fill="#535352" opacity="1.000000" stroke="none" 
	d="
M2976.243408,357.921387 
	C2978.291260,357.941498 2980.338867,357.961609 2983.154297,357.999939 
	C2984.052246,364.089996 2984.182861,370.161804 2984.110840,377.123535 
	C2981.856689,377.992401 2979.805176,377.971375 2976.895996,377.038818 
	C2976.107178,370.058655 2976.175293,363.990021 2976.243408,357.921387 
z"/>
<path fill="#535352" opacity="1.000000" stroke="none" 
	d="
M2976.129883,877.954102 
	C2978.263916,878.597168 2980.398193,879.240234 2983.202393,879.955322 
	C2984.004883,885.437988 2984.137695,890.848572 2984.062988,897.140015 
	C2981.791016,898.009216 2979.726074,897.997620 2976.813965,897.068970 
	C2976.020996,890.085999 2976.075439,884.020081 2976.129883,877.954102 
z"/>
<path fill="#B9BABF" opacity="1.000000" stroke="none" 
	d="
M2189.947266,1839.635620 
	C2188.954834,1839.717896 2187.961914,1839.871826 2186.969238,1839.871948 
	C2106.572754,1839.883423 2026.176147,1839.883057 1944.874146,1838.887939 
	C1943.957642,1832.698975 1943.946777,1827.505493 1944.855347,1822.174072 
	C1950.727905,1821.986938 1955.687378,1822.077271 1960.632568,1821.853516 
	C1966.942749,1821.568359 1973.038208,1820.437744 1978.566406,1815.834839 
	C1981.483276,1813.536133 1983.778809,1811.344238 1986.691284,1808.741211 
	C1994.785400,1801.246704 1998.898315,1792.734863 1999.270508,1782.040039 
	C2062.784424,1781.804199 2125.406494,1781.783325 2188.028564,1781.779419 
	C2188.683838,1781.779297 2189.338867,1782.000610 2189.996826,1783.048462 
	C2189.982178,1802.530762 2189.964844,1821.083130 2189.947266,1839.635620 
z"/>
<path fill="#B9BABF" opacity="1.000000" stroke="none" 
	d="
M1580.092041,1839.539917 
	C1578.109741,1839.691895 1576.127319,1839.977295 1574.145142,1839.976318 
	C1509.400391,1839.943726 1444.655762,1839.883789 1378.966431,1838.826782 
	C1378.016479,1819.258179 1378.011230,1800.690430 1378.928711,1781.946411 
	C1409.634277,1781.738647 1439.417358,1781.660522 1469.200317,1781.697632 
	C1482.092651,1781.713745 1494.984619,1781.967896 1507.897949,1782.921753 
	C1510.462158,1802.673584 1518.839966,1813.391479 1534.170898,1817.778931 
	C1539.359741,1819.658691 1544.328491,1821.576660 1549.395630,1821.886719 
	C1559.600464,1822.511230 1569.858887,1822.260498 1580.068604,1823.237305 
	C1580.058594,1829.249146 1580.075317,1834.394531 1580.092041,1839.539917 
z"/>
<path fill="#A2A3A8" opacity="1.000000" stroke="none" 
	d="
M2601.963379,1839.871338 
	C2551.921631,1839.895630 2501.879639,1839.919922 2450.912354,1838.956787 
	C2449.989502,1819.349487 2449.991943,1800.729736 2450.916016,1781.921021 
	C2488.306152,1781.723022 2524.774658,1781.676514 2561.243164,1781.724121 
	C2574.826416,1781.741821 2588.409424,1781.979492 2601.995850,1783.046875 
	C2601.987305,1802.608276 2601.975342,1821.239868 2601.963379,1839.871338 
z"/>
<path fill="#B1B2B7" opacity="1.000000" stroke="none" 
	d="
M1378.005981,1782.122803 
	C1378.011230,1800.690430 1378.016479,1819.258179 1378.038086,1838.724487 
	C1356.853638,1839.740234 1335.653076,1839.926514 1314.452271,1839.956787 
	C1288.274536,1839.994141 1262.096558,1839.901855 1234.970703,1838.881836 
	C1234.017700,1819.306152 1234.012573,1800.714233 1234.930908,1781.951172 
	C1276.623291,1781.742554 1317.392212,1781.684082 1358.161011,1781.688965 
	C1364.776001,1781.689697 1371.390991,1781.971069 1378.005981,1782.122803 
z"/>
<path fill="#A9AAAF" opacity="1.000000" stroke="none" 
	d="
M1234.007568,1782.122314 
	C1234.012573,1800.714233 1234.017700,1819.306152 1234.040283,1838.804932 
	C1186.673584,1839.775391 1139.289673,1839.839111 1090.960815,1838.929199 
	C1090.012695,1819.345093 1090.009399,1800.734497 1090.929688,1781.953369 
	C1133.285889,1781.742676 1174.718262,1781.683716 1216.150757,1781.683838 
	C1222.103027,1781.683838 1228.055298,1781.969116 1234.007568,1782.122314 
z"/>
<path fill="#999AA0" opacity="1.000000" stroke="none" 
	d="
M958.039062,1839.862305 
	C912.655762,1839.901245 867.272461,1839.940186 820.849731,1839.192749 
	C816.704407,1833.937378 815.764221,1829.064087 815.893250,1823.580933 
	C816.218201,1809.767212 816.005005,1795.940674 816.932495,1781.957764 
	C856.633545,1781.755615 895.409485,1781.688843 934.185486,1781.695557 
	C942.126404,1781.696899 950.067383,1781.973755 958.005981,1783.053223 
	C958.015503,1802.609253 958.027283,1821.235840 958.039062,1839.862305 
z"/>
<path fill="#929398" opacity="1.000000" stroke="none" 
	d="
M2858.000000,1839.995117 
	C2817.285645,1839.997192 2776.571045,1839.999146 2734.927490,1839.120605 
	C2734.665527,1829.425537 2735.623779,1820.620972 2735.922852,1811.793945 
	C2736.257812,1801.911377 2735.995361,1792.008789 2736.916016,1781.931641 
	C2763.020752,1781.733276 2788.203125,1781.660645 2813.384766,1781.721069 
	C2833.587891,1781.769531 2853.790527,1781.979248 2873.996582,1783.047241 
	C2873.999268,1797.513306 2874.081787,1811.050171 2873.966309,1824.585327 
	C2873.899902,1832.361816 2873.759766,1832.379761 2865.944092,1834.032227 
	C2862.350342,1834.791870 2858.636719,1835.325439 2858.000000,1839.995117 
z"/>
<path fill="#A9AAAF" opacity="1.000000" stroke="none" 
	d="
M2449.994629,1782.109985 
	C2449.991943,1800.729736 2449.989502,1819.349487 2449.975098,1838.885010 
	C2405.915039,1839.839111 2361.866455,1839.877441 2316.899170,1838.910400 
	C2315.984863,1819.306763 2315.989258,1800.708374 2316.914062,1781.915894 
	C2343.676270,1781.708984 2369.518555,1781.640381 2395.360107,1781.702515 
	C2413.571777,1781.746216 2431.783203,1781.967773 2449.994629,1782.109985 
z"/>
<path fill="#999AA0" opacity="1.000000" stroke="none" 
	d="
M2735.993164,1782.114868 
	C2735.995361,1792.008789 2736.257812,1801.911377 2735.922852,1811.793945 
	C2735.623779,1820.620972 2734.665527,1829.425537 2733.989258,1839.091675 
	C2690.601562,1839.957520 2647.222656,1839.971924 2602.903564,1839.928711 
	C2601.975342,1821.239868 2601.987305,1802.608276 2602.917480,1782.858643 
	C2627.688965,1781.724976 2651.541992,1781.650513 2675.394775,1781.712280 
	C2695.594482,1781.764526 2715.793701,1781.974487 2735.993164,1782.114868 
z"/>
<path fill="#A2A3A8" opacity="1.000000" stroke="none" 
	d="
M958.971802,1839.905884 
	C958.027283,1821.235840 958.015503,1802.609253 958.930420,1782.888184 
	C990.996399,1781.756958 1022.135620,1781.675903 1053.274780,1781.705688 
	C1065.518677,1781.717529 1077.762329,1781.977173 1090.006104,1782.124023 
	C1090.009399,1800.734497 1090.012695,1819.345093 1090.027954,1838.869629 
	C1046.661377,1839.838745 1003.282959,1839.894165 958.971802,1839.905884 
z"/>
<path fill="#B1B2B7" opacity="1.000000" stroke="none" 
	d="
M2315.993408,1782.109985 
	C2315.989258,1800.708374 2315.984863,1819.306763 2315.963135,1838.812988 
	C2274.570068,1839.781006 2233.194580,1839.841064 2190.883057,1839.768433 
	C2189.964844,1821.083130 2189.982178,1802.530762 2190.916992,1782.852539 
	C2211.373535,1781.712158 2230.912842,1781.635986 2250.451904,1781.699341 
	C2272.299316,1781.770142 2294.146240,1781.967651 2315.993408,1782.109985 
z"/>
<path fill="#929398" opacity="1.000000" stroke="none" 
	d="
M816.007446,1782.119385 
	C816.005005,1795.940674 816.218201,1809.767212 815.893250,1823.580933 
	C815.764221,1829.064087 816.704407,1833.937378 819.913635,1839.174194 
	C783.302856,1839.964966 746.588745,1839.988159 708.826172,1839.298828 
	C700.916504,1833.682495 699.456421,1826.940308 699.847412,1818.825439 
	C700.435730,1806.613525 700.004578,1794.352661 700.932617,1781.954956 
	C721.054626,1781.765137 740.251221,1781.666016 759.447327,1781.719604 
	C778.300903,1781.772095 797.154114,1781.979736 816.007446,1782.119385 
z"/>
<path fill="#C6C7CC" opacity="1.000000" stroke="none" 
	d="
M1581.014648,1839.665894 
	C1580.075317,1834.394531 1580.058594,1829.249146 1580.993774,1823.147461 
	C1608.621216,1822.100464 1635.296875,1822.009766 1662.910645,1821.988037 
	C1681.887329,1822.014282 1699.925781,1821.971680 1718.903076,1821.971191 
	C1745.913452,1821.969482 1771.984863,1821.925537 1798.983032,1821.914062 
	C1809.280762,1821.913818 1818.651978,1821.881226 1828.949097,1821.907593 
	C1838.594971,1821.930420 1847.314941,1821.894287 1856.968262,1821.916748 
	C1877.955322,1821.908325 1898.008789,1821.841309 1918.981323,1821.854004 
	C1927.912109,1822.059937 1935.924072,1822.186035 1943.935913,1822.312012 
	C1943.946777,1827.505493 1943.957642,1832.698975 1943.942139,1838.741211 
	C1942.254150,1839.693115 1940.592896,1839.886841 1938.931519,1839.886475 
	C1819.933472,1839.864868 1700.935303,1839.827759 1581.014648,1839.665894 
z"/>
<path fill="#8B8C91" opacity="1.000000" stroke="none" 
	d="
M2858.937256,1840.007812 
	C2858.636719,1835.325439 2862.350342,1834.791870 2865.944092,1834.032227 
	C2873.759766,1832.379761 2873.899902,1832.361816 2873.966309,1824.585327 
	C2874.081787,1811.050171 2873.999268,1797.513306 2874.919922,1782.869385 
	C2906.559326,1781.880981 2937.277832,1782.000366 2967.996582,1782.119751 
	C2967.997803,1795.594849 2968.028076,1809.070190 2967.990723,1822.545166 
	C2967.962402,1832.781494 2967.913086,1832.751343 2958.129883,1836.445068 
	C2957.350830,1836.739258 2956.877197,1837.843506 2956.130859,1839.290527 
	C2923.958252,1840.013306 2891.916260,1840.016968 2858.937256,1840.007812 
z"/>
<path fill="#8B8C91" opacity="1.000000" stroke="none" 
	d="
M700.006897,1782.112549 
	C700.004578,1794.352661 700.435730,1806.613525 699.847412,1818.825439 
	C699.456421,1826.940308 700.916504,1833.682495 707.888855,1839.293213 
	C679.290588,1840.005859 650.581238,1840.011719 620.934143,1840.015381 
	C619.946350,1839.688354 620.014832,1839.192871 619.828918,1839.063843 
	C610.923828,1832.881836 611.748291,1823.676270 611.949036,1814.519531 
	C612.172119,1804.340576 612.000244,1794.152832 612.927795,1782.879395 
	C642.572449,1781.897461 671.289673,1782.005005 700.006897,1782.112549 
z"/>
<path fill="#010101" opacity="1.000000" stroke="none" 
	d="
M700.932617,1781.954956 
	C671.289673,1782.005005 642.572449,1781.897461 612.929443,1781.948975 
	C586.057556,1781.969116 560.111572,1781.830322 533.255615,1781.626221 
	C532.129883,1763.574829 531.914001,1745.588623 531.431030,1726.680664 
	C531.231384,1711.840698 531.298828,1697.922485 531.237732,1683.082764 
	C531.271606,1674.755737 531.434082,1667.350220 531.444824,1659.039551 
	C531.481873,1655.154663 531.835266,1652.175171 531.835876,1649.195679 
	C531.869141,1493.369141 531.872925,1337.542480 531.873230,1181.715942 
	C531.873230,1180.385376 531.783752,1179.054932 531.527344,1176.794434 
	C531.420837,1154.567627 531.523193,1133.270630 531.486206,1111.054688 
	C531.526917,1107.821777 531.863098,1105.507812 531.864380,1103.193604 
	C531.902710,1032.969849 531.908813,962.746155 531.910645,892.522400 
	C531.910706,891.526611 531.791687,890.530762 531.450256,888.607971 
	C531.233032,869.835999 531.293762,851.991089 531.279175,833.234009 
	C531.448181,830.020874 531.906799,827.719910 531.905884,825.419006 
	C531.867920,734.252075 531.788208,643.085083 531.574829,550.994385 
	C531.550415,533.979004 531.665100,517.887451 531.616211,500.862885 
	C531.578674,478.028168 531.769897,456.126587 531.813293,434.224762 
	C531.861267,409.995148 531.773987,385.765289 531.472595,360.606598 
	C531.256653,342.500610 531.313721,325.323517 531.292542,307.234619 
	C531.443054,303.016693 531.868225,299.710724 531.870483,296.404510 
	C531.895447,259.074158 531.819763,221.743729 531.844666,184.413376 
	C531.864502,154.662994 552.636719,133.823013 582.287476,133.822647 
	C1363.226929,133.812714 2144.166504,133.812714 2925.105957,133.822159 
	C2954.165527,133.822510 2975.312988,154.264542 2975.774170,184.128265 
	C2976.340088,220.782974 2975.898438,257.453705 2975.819824,294.117340 
	C2975.810791,298.371887 2975.341064,302.625488 2975.577148,307.444489 
	C2976.058105,324.029327 2976.046631,340.049194 2976.139404,356.995239 
	C2976.175293,363.990021 2976.107178,370.058655 2976.126953,377.027405 
	C2976.107178,379.918396 2975.904785,381.909241 2975.904785,383.900085 
	C2975.907471,527.995605 2975.926514,672.091187 2976.060547,817.124268 
	C2976.065430,824.784424 2975.954102,831.506897 2975.991943,839.139404 
	C2976.074707,852.065063 2976.008301,864.080627 2976.035889,877.025146 
	C2976.075439,884.020081 2976.020996,890.085999 2976.039551,897.055176 
	C2976.039062,926.182129 2975.926514,954.405884 2975.902100,982.629700 
	C2975.866699,1023.809021 2975.894775,1064.988403 2976.002197,1107.104126 
	C2976.065186,1130.058716 2976.021240,1152.076782 2976.045410,1175.026367 
	C2976.039795,1183.608643 2975.902344,1191.259399 2975.902344,1198.910156 
	C2975.899902,1352.011719 2975.913330,1505.113281 2976.059570,1659.152710 
	C2976.090820,1666.801270 2975.986084,1673.511963 2976.031250,1681.131226 
	C2976.111572,1696.720093 2976.041504,1711.400391 2976.046875,1727.010498 
	C2975.985352,1745.151611 2975.848389,1762.363159 2975.615234,1780.458740 
	C2973.505127,1781.489868 2971.491699,1781.636719 2968.737305,1781.951660 
	C2937.277832,1782.000366 2906.559326,1781.880981 2874.916992,1781.939453 
	C2853.790527,1781.979248 2833.587891,1781.769531 2813.384766,1781.721069 
	C2788.203125,1781.660645 2763.020752,1781.733276 2736.916016,1781.931641 
	C2715.793701,1781.974487 2695.594482,1781.764526 2675.394775,1781.712280 
	C2651.541992,1781.650513 2627.688965,1781.724976 2602.914062,1781.928589 
	C2588.409424,1781.979492 2574.826416,1781.741821 2561.243164,1781.724121 
	C2524.774658,1781.676514 2488.306152,1781.723022 2450.916016,1781.921021 
	C2431.783203,1781.967773 2413.571777,1781.746216 2395.360107,1781.702515 
	C2369.518555,1781.640381 2343.676270,1781.708984 2316.914062,1781.915894 
	C2294.146240,1781.967651 2272.299316,1781.770142 2250.451904,1781.699341 
	C2230.912842,1781.635986 2211.373535,1781.712158 2190.914062,1781.922729 
	C2189.338867,1782.000610 2188.683838,1781.779297 2188.028564,1781.779419 
	C2125.406494,1781.783325 2062.784424,1781.804199 1998.380249,1782.019043 
	C1993.040039,1782.177002 1989.481812,1782.139771 1985.098389,1782.034302 
	C1981.519531,1781.968994 1978.765991,1781.971802 1975.078491,1781.875854 
	C1954.758789,1781.878296 1935.372925,1781.979614 1915.058350,1781.950073 
	C1894.748657,1781.923706 1875.367920,1782.028320 1855.066406,1781.978027 
	C1844.761597,1781.916992 1835.377441,1782.010864 1825.073486,1781.942383 
	C1814.764648,1781.888306 1805.375977,1781.996704 1795.061890,1781.948242 
	C1769.429321,1781.900757 1744.721924,1782.010254 1719.094238,1781.921021 
	C1700.788086,1781.856445 1683.402222,1781.990479 1665.094482,1781.933716 
	C1620.781006,1781.822266 1577.389648,1781.901855 1533.418945,1781.560547 
	C1524.518677,1781.464600 1516.197754,1781.789185 1507.876831,1782.113770 
	C1494.984619,1781.967896 1482.092651,1781.713745 1469.200317,1781.697632 
	C1439.417358,1781.660522 1409.634277,1781.738647 1378.928711,1781.946411 
	C1371.390991,1781.971069 1364.776001,1781.689697 1358.161011,1781.688965 
	C1317.392212,1781.684082 1276.623291,1781.742554 1234.931030,1781.951172 
	C1228.055298,1781.969116 1222.103027,1781.683838 1216.150757,1781.683838 
	C1174.718262,1781.683716 1133.285889,1781.742676 1090.929688,1781.953369 
	C1077.762329,1781.977173 1065.518677,1781.717529 1053.274780,1781.705688 
	C1022.135620,1781.675903 990.996399,1781.756958 958.932739,1781.958740 
	C950.067383,1781.973755 942.126404,1781.696899 934.185486,1781.695557 
	C895.409485,1781.688843 856.633545,1781.755615 816.932495,1781.957886 
	C797.154114,1781.979736 778.300903,1781.772095 759.447327,1781.719604 
	C740.251221,1781.666016 721.054626,1781.765137 700.932617,1781.954956 
M540.144348,485.813751 
	C540.262329,509.195648 540.380310,532.577515 540.145447,557.808350 
	C540.260254,582.520142 540.375061,607.231873 540.135681,633.799805 
	C540.246704,657.183594 540.357727,680.567444 540.145508,705.806030 
	C540.247742,729.853027 540.349976,753.900024 540.149109,779.805359 
	C540.226074,803.846008 540.302979,827.886597 540.114258,853.793579 
	C540.176941,878.511047 540.239624,903.228516 540.094177,929.816650 
	C540.081116,954.020447 539.970215,978.224915 540.132507,1002.427490 
	C540.167664,1007.669312 541.184631,1012.904419 541.040527,1019.630432 
	C540.690613,1022.231140 540.038635,1024.831543 540.036926,1027.432495 
	C540.016479,1058.933472 540.091919,1090.434570 540.039673,1123.815674 
	C540.102295,1201.648438 540.164551,1279.481323 540.246460,1357.314087 
	C540.246765,1357.570679 540.480042,1357.897339 540.700500,1358.065063 
	C540.952942,1358.257202 541.312683,1358.308350 542.314697,1358.667969 
	C547.596802,1352.727905 553.137512,1346.638184 558.517395,1340.409302 
	C564.573730,1333.397217 570.272217,1326.064697 576.529846,1319.241699 
	C581.117188,1314.239746 584.434021,1307.567139 592.332825,1307.848999 
	C592.332825,1434.374878 592.332825,1560.900879 592.332825,1687.584717 
	C1366.904419,1687.584717 2140.101807,1687.584717 2913.648438,1687.584717 
	C2913.648438,1205.467651 2913.648438,723.751953 2913.648438,241.675980 
	C2908.678711,241.675980 2904.373535,241.675964 2900.068115,241.675964 
	C2443.744385,241.675964 1987.420532,241.676834 1531.096802,241.663208 
	C1526.770508,241.663071 1522.444336,241.470093 1518.320068,240.043411 
	C1520.462158,236.760834 1522.383301,233.303131 1524.807983,230.244492 
	C1527.276855,227.129837 1530.370728,224.518951 1532.966187,221.494614 
	C1543.535278,209.178589 1553.917847,196.701462 1564.560547,184.449875 
	C1575.650269,171.683716 1586.981323,159.127411 1598.123047,146.406036 
	C1598.818359,145.612045 1598.786133,144.180847 1599.132568,142.897491 
	C1597.540283,142.547729 1596.590088,142.156219 1595.639893,142.156494 
	C1545.065918,142.171097 1494.491821,142.218750 1442.062744,142.123962 
	C1397.360718,142.160507 1352.658813,142.197067 1306.095215,142.077408 
	C1282.708740,142.158432 1259.322388,142.239441 1234.081055,142.120804 
	C1211.371338,142.211639 1188.661621,142.302475 1164.098877,142.140747 
	C1141.382080,142.233582 1118.665405,142.326401 1094.097412,142.162460 
	C1070.714478,142.253693 1047.331665,142.344940 1022.099487,142.163712 
	C998.053772,142.256226 974.007996,142.348755 948.112976,142.146027 
	C926.731323,142.248001 905.349609,142.349976 882.119446,142.145096 
	C862.737061,142.245255 843.354675,142.345398 822.125610,142.131088 
	C813.861694,142.088638 805.597534,141.977753 797.333984,142.016861 
	C774.868408,142.123184 752.403137,142.292984 728.091858,142.148132 
	C702.716003,142.259720 677.340088,142.371307 650.119263,142.158051 
	C626.842896,142.113434 603.562744,141.787537 580.291382,142.106628 
	C558.828918,142.400925 540.908142,159.095062 540.358582,180.178375 
	C539.718018,204.754700 540.413696,229.365860 540.137329,255.803741 
	C540.257141,283.179321 540.377014,310.554901 540.103027,339.779236 
	C540.225647,364.509705 540.348267,389.240173 540.121338,415.822113 
	C540.247864,438.536835 540.374329,461.251556 540.144348,485.813751 
M1744.364502,203.144043 
	C1759.196289,209.738968 1770.225342,203.169647 1770.081543,187.826080 
	C1770.018555,181.106216 1765.420166,174.091400 1759.908936,172.308289 
	C1753.086548,170.100998 1743.944336,172.451920 1739.706177,177.503433 
	C1735.418457,182.613953 1734.614868,190.150772 1738.081909,196.099792 
	C1739.389771,198.343826 1741.435669,200.157715 1744.364502,203.144043 
z"/>
<path fill="#78797D" opacity="1.000000" stroke="none" 
	d="
M1915.987183,1782.081055 
	C1935.372925,1781.979614 1954.758789,1781.878296 1975.109253,1782.812134 
	C1976.080566,1791.761108 1975.929443,1799.679810 1976.177979,1807.585938 
	C1976.266113,1810.387085 1977.327759,1813.157349 1977.944824,1815.941650 
	C1973.038208,1820.437744 1966.942749,1821.568359 1960.632568,1821.853516 
	C1955.687378,1822.077271 1950.727905,1821.986938 1944.855347,1822.174072 
	C1935.924072,1822.186035 1927.912109,1822.059937 1918.943726,1821.030029 
	C1917.329590,1814.650635 1916.350220,1809.190186 1916.094482,1803.695923 
	C1915.759644,1796.504883 1915.996338,1789.287109 1915.987183,1782.081055 
z"/>
<path fill="#5C5C5C" opacity="1.000000" stroke="none" 
	d="
M1978.566284,1815.834839 
	C1977.327759,1813.157349 1976.266113,1810.387085 1976.177979,1807.585938 
	C1975.929443,1799.679810 1976.080566,1791.761108 1976.043213,1782.911011 
	C1978.765991,1781.971802 1981.519531,1781.968994 1985.121826,1782.958862 
	C1986.005127,1792.351929 1986.039673,1800.752075 1986.074219,1809.152344 
	C1983.778809,1811.344238 1981.483276,1813.536133 1978.566284,1815.834839 
z"/>
<path fill="#353438" opacity="1.000000" stroke="none" 
	d="
M1986.691162,1808.741211 
	C1986.039673,1800.752075 1986.005127,1792.351929 1985.947021,1783.027100 
	C1989.481812,1782.139771 1993.040039,1782.177002 1997.488525,1782.235229 
	C1998.898315,1792.734863 1994.785400,1801.246704 1986.691162,1808.741211 
z"/>
<path fill="#8B8C91" opacity="1.000000" stroke="none" 
	d="
M1533.998169,1781.981323 
	C1577.389648,1781.901855 1620.781006,1781.822266 1665.089966,1782.860107 
	C1666.005005,1787.970459 1666.043579,1791.963745 1665.991577,1795.956055 
	C1665.876343,1804.796875 1667.274170,1813.878906 1661.972534,1821.918945 
	C1635.296875,1822.009766 1608.621216,1822.100464 1581.020386,1822.281006 
	C1569.858887,1822.260498 1559.600464,1822.511230 1549.395630,1821.886719 
	C1544.328491,1821.576660 1539.359741,1819.658691 1534.111938,1816.747681 
	C1533.917603,1804.011963 1533.957886,1792.996704 1533.998169,1781.981323 
z"/>
<path fill="#535352" opacity="1.000000" stroke="none" 
	d="
M1533.418945,1781.560547 
	C1533.957886,1792.996704 1533.917603,1804.011963 1533.936279,1816.058594 
	C1518.839966,1813.391479 1510.462158,1802.673584 1507.897949,1782.921753 
	C1516.197754,1781.789185 1524.518677,1781.464600 1533.418945,1781.560547 
z"/>
<path fill="#A9AAAF" opacity="1.000000" stroke="none" 
	d="
M1720.014648,1782.119629 
	C1744.721924,1782.010254 1769.429321,1781.900757 1795.068115,1782.877197 
	C1796.001465,1787.556152 1795.815552,1791.161011 1796.041870,1794.739990 
	C1796.614624,1803.793335 1797.372559,1812.835083 1798.056396,1821.881470 
	C1771.984863,1821.925537 1745.913452,1821.969482 1719.025635,1821.149780 
	C1718.806274,1816.435547 1719.804688,1812.596802 1719.918579,1808.731934 
	C1720.179810,1799.867920 1720.009644,1790.991333 1720.014648,1782.119629 
z"/>
<path fill="#87888D" opacity="1.000000" stroke="none" 
	d="
M1915.058350,1781.949951 
	C1915.996338,1789.287109 1915.759644,1796.504883 1916.094482,1803.695923 
	C1916.350220,1809.190186 1917.329590,1814.650635 1918.024780,1820.950195 
	C1898.008789,1821.841309 1877.955322,1821.908325 1856.955688,1820.994507 
	C1856.002075,1807.386719 1855.994507,1794.759766 1855.987061,1782.133057 
	C1875.367920,1782.028320 1894.748657,1781.923706 1915.058350,1781.949951 
z"/>
<path fill="#999AA0" opacity="1.000000" stroke="none" 
	d="
M1719.094238,1781.921143 
	C1720.009644,1790.991333 1720.179810,1799.867920 1719.918579,1808.731934 
	C1719.804688,1812.596802 1718.806274,1816.435547 1718.086914,1821.107666 
	C1699.925781,1821.971680 1681.887329,1822.014282 1662.910645,1821.987915 
	C1667.274170,1813.878906 1665.876343,1804.796875 1665.991577,1795.956055 
	C1666.043579,1791.963745 1666.005005,1787.970459 1666.011963,1783.051025 
	C1683.402222,1781.990479 1700.788086,1781.856445 1719.094238,1781.921143 
z"/>
<path fill="#999AA0" opacity="1.000000" stroke="none" 
	d="
M1798.983032,1821.914062 
	C1797.372559,1812.835083 1796.614624,1803.793335 1796.041870,1794.739990 
	C1795.815552,1791.161011 1796.001465,1787.556152 1795.993408,1783.034180 
	C1805.375977,1781.996704 1814.764648,1781.888306 1825.076904,1782.871094 
	C1826.001953,1787.551880 1825.818481,1791.153076 1826.041138,1794.729004 
	C1826.604492,1803.774902 1827.350342,1812.809448 1828.023071,1821.848633 
	C1818.651978,1821.881226 1809.280762,1821.913818 1798.983032,1821.914062 
z"/>
<path fill="#929398" opacity="1.000000" stroke="none" 
	d="
M1828.949097,1821.907593 
	C1827.350342,1812.809448 1826.604492,1803.774902 1826.041138,1794.729004 
	C1825.818481,1791.153076 1826.001953,1787.551880 1825.996826,1783.033447 
	C1835.377441,1782.010864 1844.761597,1781.916992 1855.066284,1781.978027 
	C1855.994507,1794.759766 1856.002075,1807.386719 1856.022217,1820.935791 
	C1847.314941,1821.894287 1838.594971,1821.930420 1828.949097,1821.907593 
z"/>
<path fill="#FFFFFF" opacity="1.000000" stroke="none" 
	d="
M1518.118042,241.367157 
	C1522.444336,241.470093 1526.770508,241.663071 1531.096802,241.663208 
	C1987.420532,241.676834 2443.744385,241.675964 2900.068115,241.675964 
	C2904.373535,241.675964 2908.678711,241.675980 2913.648438,241.675980 
	C2913.648438,723.751953 2913.648438,1205.467651 2913.648438,1687.584717 
	C2140.101807,1687.584717 1366.904419,1687.584717 592.332825,1687.584717 
	C592.332825,1560.900879 592.332825,1434.374878 592.386414,1306.007812 
	C592.405396,1233.754395 592.377014,1163.342285 592.318420,1092.930054 
	C592.315369,1089.288818 592.054321,1085.647827 592.129639,1081.090698 
	C592.359741,1072.566162 592.418335,1064.957397 592.379517,1057.349121 
	C592.241028,1030.234253 592.069458,1003.119568 592.124512,975.088379 
	C592.193054,944.784180 592.047546,915.396362 592.109680,885.090454 
	C592.183228,859.450684 592.049133,834.729065 592.122803,809.089355 
	C592.196167,784.115784 592.061768,760.060364 592.126770,735.085327 
	C592.190186,709.445801 592.054199,684.725891 592.114258,659.085571 
	C592.180725,635.445618 592.051025,612.725891 592.114258,589.085327 
	C592.178040,563.445129 592.049011,538.725891 592.106323,513.084351 
	C592.164978,488.777222 592.037231,465.392303 592.090942,441.084229 
	C592.143921,417.442200 592.015442,394.723419 592.062073,371.080750 
	C592.124268,345.443726 592.011353,320.730591 592.077881,295.093323 
	C592.257263,277.014038 592.257263,259.858948 592.257263,242.145874 
	C609.062256,241.817856 624.576416,241.515045 641.008667,241.373962 
	C653.486267,241.580505 665.046021,241.702362 676.605164,241.652954 
	C696.408447,241.568298 716.211243,241.376526 736.935669,241.406921 
	C757.256226,241.468185 776.655334,241.352264 796.972412,241.409058 
	C819.278809,241.465530 840.667175,241.349289 862.973633,241.405518 
	C887.937561,241.463638 911.983521,241.349274 936.950378,241.406799 
	C961.256165,241.462646 984.641052,241.346603 1008.946594,241.405273 
	C1032.594482,241.463425 1055.321777,241.346863 1078.967285,241.407227 
	C1102.610352,241.461411 1125.335449,241.338699 1148.978149,241.391541 
	C1173.280396,241.445160 1196.664795,241.323212 1220.966553,241.384430 
	C1259.666138,241.616501 1297.448608,241.691681 1335.231079,241.692276 
	C1342.838379,241.692398 1350.445801,241.409515 1358.971558,241.433258 
	C1400.702515,241.654648 1441.515015,241.730759 1482.327515,241.726013 
	C1494.257690,241.724625 1506.187866,241.493164 1518.118042,241.367157 
z"/>
<path fill="#2A2A28" opacity="1.000000" stroke="none" 
	d="
M1518.218994,240.705292 
	C1506.187866,241.493164 1494.257690,241.724625 1482.327515,241.726013 
	C1441.515015,241.730759 1400.702515,241.654648 1358.973389,240.716705 
	C1357.197021,234.675018 1360.958984,232.036438 1363.970459,229.022522 
	C1388.618408,204.354370 1413.256104,179.675797 1437.965942,155.069809 
	C1441.585205,151.465729 1445.143799,148.028870 1443.917847,142.262970 
	C1494.491821,142.218750 1545.065918,142.171097 1595.639893,142.156494 
	C1596.590088,142.156219 1597.540283,142.547729 1599.132568,142.897491 
	C1598.786133,144.180847 1598.818359,145.612045 1598.123047,146.406036 
	C1586.981323,159.127411 1575.650269,171.683716 1564.560547,184.449875 
	C1553.917847,196.701462 1543.535278,209.178589 1532.966187,221.494614 
	C1530.370728,224.518951 1527.276855,227.129837 1524.807983,230.244492 
	C1522.383301,233.303131 1520.462158,236.760834 1518.218994,240.705292 
z"/>
<path fill="#353438" opacity="1.000000" stroke="none" 
	d="
M1442.990234,142.193466 
	C1445.143799,148.028870 1441.585205,151.465729 1437.965942,155.069809 
	C1413.256104,179.675797 1388.618408,204.354370 1363.970459,229.022522 
	C1360.958984,232.036438 1357.197021,234.675018 1358.054932,240.540558 
	C1350.445801,241.409515 1342.838379,241.692398 1335.231079,241.692276 
	C1297.448608,241.691681 1259.666138,241.616501 1220.985352,240.706604 
	C1222.274658,236.684845 1224.049561,233.115143 1226.713989,230.427063 
	C1251.184326,205.739014 1275.795410,181.190277 1300.401978,156.637558 
	C1304.450684,152.597748 1308.309692,148.542816 1307.956787,142.233612 
	C1352.658813,142.197067 1397.360718,142.160507 1442.990234,142.193466 
z"/>
<path fill="#1E1E1C" opacity="1.000000" stroke="none" 
	d="
M591.913452,1082.006714 
	C592.054321,1085.647827 592.315369,1089.288818 592.318420,1092.930054 
	C592.377014,1163.342285 592.405396,1233.754395 592.225464,1305.082520 
	C584.434021,1307.567139 581.117188,1314.239746 576.529846,1319.241699 
	C570.272217,1326.064697 564.573730,1333.397217 558.517395,1340.409302 
	C553.137512,1346.638184 547.596802,1352.727905 542.314697,1358.667969 
	C541.312683,1358.308350 540.952942,1358.257202 540.700500,1358.065063 
	C540.480042,1357.897339 540.246765,1357.570679 540.246460,1357.314087 
	C540.164551,1279.481323 540.102295,1201.648438 540.872620,1122.896606 
	C546.674805,1122.674683 550.419861,1120.858643 553.925415,1117.208252 
	C563.492493,1107.245239 573.301575,1097.507812 583.229614,1087.903076 
	C585.707031,1085.506348 588.996948,1083.949463 591.913452,1082.006714 
z"/>
<path fill="#87888D" opacity="1.000000" stroke="none" 
	d="
M640.090576,241.212219 
	C624.576416,241.515045 609.062256,241.817856 592.257263,242.145874 
	C592.257263,259.858948 592.257263,277.014038 591.396606,295.161560 
	C587.973022,298.155426 585.191528,299.934143 582.885132,302.197083 
	C573.209900,311.690186 563.651184,321.302887 554.104248,330.925781 
	C550.304688,334.755646 546.378784,338.207428 540.496887,337.930481 
	C540.377014,310.554901 540.257141,283.179321 541.060425,254.881989 
	C544.898193,252.725800 548.531494,252.216965 550.619934,250.148376 
	C583.168030,217.910172 615.482666,185.436478 647.964722,153.131226 
	C651.087097,150.025864 652.454590,146.718842 651.964233,142.482880 
	C677.340088,142.371307 702.716003,142.259720 729.013062,142.992035 
	C727.807068,147.043472 726.138489,150.705261 723.481201,153.387817 
	C698.442078,178.666016 673.153564,203.697525 648.170898,229.030945 
	C644.812988,232.436050 642.752136,237.120300 640.090576,241.212219 
z"/>
<path fill="#78797D" opacity="1.000000" stroke="none" 
	d="
M641.008667,241.373932 
	C642.752136,237.120300 644.812988,232.436050 648.170898,229.030945 
	C673.153564,203.697525 698.442078,178.666016 723.481201,153.387817 
	C726.138489,150.705261 727.807068,147.043472 729.936035,143.136780 
	C752.403137,142.292984 774.868408,142.123184 797.333984,142.016861 
	C805.597534,141.977753 813.861694,142.088638 823.053101,143.019012 
	C824.773010,148.961685 821.281921,151.731735 818.236450,154.774750 
	C792.936951,180.054031 767.636292,205.332230 742.383606,230.658279 
	C739.426819,233.623627 735.399353,236.062164 736.014282,241.229721 
	C716.211243,241.376526 696.408447,241.568298 676.605164,241.652954 
	C665.046021,241.702362 653.486267,241.580505 641.008667,241.373932 
z"/>
<path fill="#656564" opacity="1.000000" stroke="none" 
	d="
M936.029480,241.234909 
	C911.983521,241.349274 887.937561,241.463638 862.982727,240.727142 
	C864.258118,236.708710 866.025208,233.127594 868.691589,230.437973 
	C893.657593,205.253723 918.756226,180.200638 943.877441,155.170715 
	C947.468872,151.592300 951.131470,148.217651 949.962280,142.441284 
	C974.007996,142.348755 998.053772,142.256226 1023.022705,143.004486 
	C1023.582214,149.685760 1019.671753,153.349930 1015.883545,157.133087 
	C991.143433,181.840179 966.421936,206.565918 941.712585,231.303864 
	C938.934937,234.084763 935.404724,236.485077 936.029480,241.234909 
z"/>
<path fill="#3F3F3F" opacity="1.000000" stroke="none" 
	d="
M1307.026001,142.155518 
	C1308.309692,148.542816 1304.450684,152.597748 1300.401978,156.637558 
	C1275.795410,181.190277 1251.184326,205.739014 1226.713989,230.427063 
	C1224.049561,233.115143 1222.274658,236.684845 1220.068237,240.523438 
	C1196.664795,241.323212 1173.280396,241.445160 1148.995728,240.712891 
	C1150.281250,236.690781 1152.050171,233.109818 1154.717285,230.419281 
	C1179.702393,205.216400 1204.818115,180.142685 1229.961548,155.097519 
	C1233.569458,151.503769 1237.159790,148.087921 1235.935913,142.320465 
	C1259.322388,142.239441 1282.708740,142.158432 1307.026001,142.155518 
z"/>
<path fill="#4B4B4A" opacity="1.000000" stroke="none" 
	d="
M1235.008545,142.220642 
	C1237.159790,148.087921 1233.569458,151.503769 1229.961548,155.097519 
	C1204.818115,180.142685 1179.702393,205.216400 1154.717285,230.419281 
	C1152.050171,233.109818 1150.281250,236.690781 1148.078003,240.537323 
	C1125.335449,241.338699 1102.610352,241.461411 1078.966064,240.693848 
	C1077.236450,234.678253 1080.973267,232.039246 1083.980103,229.030319 
	C1109.276123,203.716248 1134.593140,178.423233 1159.879150,153.099075 
	C1162.865723,150.108017 1166.726685,147.546753 1165.951904,142.393295 
	C1188.661621,142.302475 1211.371338,142.211639 1235.008545,142.220642 
z"/>
<path fill="#5C5C5C" opacity="1.000000" stroke="none" 
	d="
M936.950378,241.406799 
	C935.404724,236.485077 938.934937,234.084763 941.712585,231.303864 
	C966.421936,206.565918 991.143433,181.840179 1015.883545,157.133087 
	C1019.671753,153.349930 1023.582214,149.685760 1023.947327,143.140717 
	C1047.331665,142.344940 1070.714478,142.253693 1095.024292,142.984436 
	C1093.831787,147.006607 1092.171265,150.661469 1089.521484,153.336273 
	C1064.333496,178.762680 1039.005859,204.051117 1013.636292,229.296722 
	C1010.241089,232.675339 1007.109436,235.936905 1008.025940,241.230560 
	C984.641052,241.346603 961.256165,241.462646 936.950378,241.406799 
z"/>
<path fill="#535352" opacity="1.000000" stroke="none" 
	d="
M1008.946594,241.405273 
	C1007.109436,235.936905 1010.241089,232.675339 1013.636292,229.296722 
	C1039.005859,204.051117 1064.333496,178.762680 1089.521484,153.336273 
	C1092.171265,150.661469 1093.831787,147.006607 1095.949951,143.112823 
	C1118.665405,142.326401 1141.382080,142.233582 1165.025391,142.267029 
	C1166.726685,147.546753 1162.865723,150.108017 1159.879150,153.099075 
	C1134.593140,178.423233 1109.276123,203.716248 1083.980103,229.030319 
	C1080.973267,232.039246 1077.236450,234.678253 1078.047852,240.516922 
	C1055.321777,241.346863 1032.594482,241.463425 1008.946594,241.405273 
z"/>
<path fill="#6D6D6D" opacity="1.000000" stroke="none" 
	d="
M949.037598,142.293655 
	C951.131470,148.217651 947.468872,151.592300 943.877441,155.170715 
	C918.756226,180.200638 893.657593,205.253723 868.691589,230.437973 
	C866.025208,233.127594 864.258118,236.708710 862.064697,240.554657 
	C840.667175,241.349289 819.278809,241.465530 796.965881,240.697632 
	C795.241882,234.695908 798.961731,232.049637 801.969971,229.039520 
	C827.258240,203.735550 852.566528,178.451569 877.841797,153.134567 
	C880.824402,150.147049 884.700073,147.600571 883.967957,142.451950 
	C905.349609,142.349976 926.731323,142.248001 949.037598,142.293655 
z"/>
<path fill="#929398" opacity="1.000000" stroke="none" 
	d="
M651.041748,142.320465 
	C652.454590,146.718842 651.087097,150.025864 647.964722,153.131226 
	C615.482666,185.436478 583.168030,217.910172 550.619934,250.148376 
	C548.531494,252.216965 544.898193,252.725800 541.256531,253.961060 
	C540.413696,229.365860 539.718018,204.754700 540.358582,180.178375 
	C540.908142,159.095062 558.828918,142.400925 580.291382,142.106628 
	C603.562744,141.787537 626.842896,142.113434 651.041748,142.320465 
z"/>
<path fill="#757575" opacity="1.000000" stroke="none" 
	d="
M883.043701,142.298523 
	C884.700073,147.600571 880.824402,150.147049 877.841797,153.134567 
	C852.566528,178.451569 827.258240,203.735550 801.969971,229.039520 
	C798.961731,232.049637 795.241882,234.695908 796.047974,240.524902 
	C776.655334,241.352264 757.256226,241.468185 736.935669,241.406921 
	C735.399353,236.062164 739.426819,233.623627 742.383606,230.658279 
	C767.636292,205.332230 792.936951,180.054031 818.236450,154.774750 
	C821.281921,151.731735 824.773010,148.961685 823.976440,143.176239 
	C843.354675,142.345398 862.737061,142.245255 883.043701,142.298523 
z"/>
<path fill="#2A2A28" opacity="1.000000" stroke="none" 
	d="
M592.129639,1081.090698 
	C588.996948,1083.949463 585.707031,1085.506348 583.229614,1087.903076 
	C573.301575,1097.507812 563.492493,1107.245239 553.925415,1117.208252 
	C550.419861,1120.858643 546.674805,1122.674683 540.924011,1121.956543 
	C540.091919,1090.434570 540.016479,1058.933472 540.036926,1027.432495 
	C540.038635,1024.831543 540.690613,1022.231140 542.151733,1018.829651 
	C546.274414,1016.253113 549.763367,1014.973633 552.214478,1012.615417 
	C562.686462,1002.540527 572.762451,992.054688 583.194824,981.937317 
	C585.680237,979.526978 588.983337,977.959778 591.910400,976.004761 
	C592.069458,1003.119568 592.241028,1030.234253 592.379517,1057.349121 
	C592.418335,1064.957397 592.359741,1072.566162 592.129639,1081.090698 
z"/>
<path fill="#353438" opacity="1.000000" stroke="none" 
	d="
M592.124451,975.088379 
	C588.983337,977.959778 585.680237,979.526978 583.194824,981.937317 
	C572.762451,992.054688 562.686462,1002.540527 552.214478,1012.615417 
	C549.763367,1014.973633 546.274414,1016.253113 542.506226,1018.085754 
	C541.184631,1012.904419 540.167664,1007.669312 540.132507,1002.427490 
	C539.970215,978.224915 540.081116,954.020447 540.908691,928.885620 
	C545.909241,925.544006 550.717407,923.802185 554.163391,920.596252 
	C564.103271,911.348450 573.399414,901.412476 583.165771,891.971558 
	C585.664368,889.556152 588.968140,887.973694 591.902039,886.008545 
	C592.047546,915.396362 592.193054,944.784180 592.124451,975.088379 
z"/>
<path fill="#3F3F3F" opacity="1.000000" stroke="none" 
	d="
M592.109680,885.090393 
	C588.968140,887.973694 585.664368,889.556152 583.165771,891.971558 
	C573.399414,901.412476 564.103271,911.348450 554.163391,920.596252 
	C550.717407,923.802185 545.909241,925.544006 541.012817,927.950317 
	C540.239624,903.228516 540.176941,878.511047 540.973999,852.878784 
	C546.417114,852.691406 549.199890,849.863708 552.069275,846.967285 
	C562.364258,836.574585 572.648621,826.167847 583.148376,815.984375 
	C585.649841,813.558167 588.971008,811.977173 591.915100,810.007446 
	C592.049133,834.729065 592.183228,859.450684 592.109680,885.090393 
z"/>
<path fill="#4B4B4A" opacity="1.000000" stroke="none" 
	d="
M592.122803,809.089355 
	C588.971008,811.977173 585.649841,813.558167 583.148376,815.984375 
	C572.648621,826.167847 562.364258,836.574585 552.069275,846.967285 
	C549.199890,849.863708 546.417114,852.691406 541.106812,851.945618 
	C540.302979,827.886597 540.226074,803.846008 540.989624,778.876526 
	C551.423706,774.472107 556.909363,765.947449 564.066345,759.542358 
	C570.827271,753.491943 576.575989,746.321167 583.201050,740.102478 
	C585.429016,738.011292 588.980713,737.330383 591.927368,736.004883 
	C592.061768,760.060364 592.196167,784.115784 592.122803,809.089355 
z"/>
<path fill="#535352" opacity="1.000000" stroke="none" 
	d="
M592.126770,735.085327 
	C588.980713,737.330383 585.429016,738.011292 583.201050,740.102478 
	C576.575989,746.321167 570.827271,753.491943 564.066345,759.542358 
	C556.909363,765.947449 551.423706,774.472107 541.141174,777.947388 
	C540.349976,753.900024 540.247742,729.853027 540.996277,704.877075 
	C544.810608,702.051514 548.190186,700.584167 550.666138,698.184387 
	C561.620178,687.567261 572.227722,676.592957 583.168396,665.961609 
	C585.660706,663.539734 588.979736,661.968628 591.918213,660.005920 
	C592.054199,684.725891 592.190186,709.445801 592.126770,735.085327 
z"/>
<path fill="#78797D" opacity="1.000000" stroke="none" 
	d="
M540.299927,338.854858 
	C546.378784,338.207428 550.304688,334.755646 554.104248,330.925781 
	C563.651184,321.302887 573.209900,311.690186 582.885132,302.197083 
	C585.191528,299.934143 587.973022,298.155426 591.217224,296.085724 
	C592.011353,320.730591 592.124268,345.443726 591.339966,371.089111 
	C587.447876,373.862915 584.007263,375.242249 581.535828,377.626343 
	C571.025635,387.765015 560.801819,398.200470 550.475220,408.529449 
	C547.675598,411.329773 545.166687,414.659088 540.470947,413.970642 
	C540.348267,389.240173 540.225647,364.509705 540.299927,338.854858 
z"/>
<path fill="#656564" opacity="1.000000" stroke="none" 
	d="
M591.919983,514.006592 
	C592.049011,538.725891 592.178040,563.445129 591.388977,589.091187 
	C587.472839,591.852722 584.023315,593.219727 581.554871,595.603027 
	C570.809204,605.977905 560.332581,616.632263 549.796936,627.223511 
	C547.190674,629.843628 544.718750,632.587036 540.489868,631.943665 
	C540.375061,607.231873 540.260254,582.520142 541.045898,556.889526 
	C546.540955,556.683716 549.277649,553.775879 552.130798,550.899719 
	C562.416870,540.530579 572.680176,530.135437 583.163757,519.968384 
	C585.661011,517.546570 588.979370,515.971252 591.919983,514.006592 
z"/>
<path fill="#6D6D6D" opacity="1.000000" stroke="none" 
	d="
M592.106323,513.084351 
	C588.979370,515.971252 585.661011,517.546570 583.163757,519.968384 
	C572.680176,530.135437 562.416870,540.530579 552.130798,550.899719 
	C549.277649,553.775879 546.540955,556.683716 541.222351,555.965088 
	C540.380310,532.577515 540.262329,509.195648 541.048218,484.893951 
	C546.545593,484.683868 549.280457,481.774841 552.132629,478.899628 
	C562.416321,468.532928 572.677673,458.140503 583.158325,447.975250 
	C585.655579,445.553131 588.970642,443.974182 591.909546,442.007416 
	C592.037231,465.392303 592.164978,488.777222 592.106323,513.084351 
z"/>
<path fill="#5C5C5C" opacity="1.000000" stroke="none" 
	d="
M540.312744,632.871704 
	C544.718750,632.587036 547.190674,629.843628 549.796936,627.223511 
	C560.332581,616.632263 570.809204,605.977905 581.554871,595.603027 
	C584.023315,593.219727 587.472839,591.852722 591.196167,590.012085 
	C592.051025,612.725891 592.180725,635.445618 592.114258,659.085571 
	C588.979736,661.968628 585.660706,663.539734 583.168396,665.961609 
	C572.227722,676.592957 561.620178,687.567261 550.666138,698.184387 
	C548.190186,700.584167 544.810608,702.051514 541.157898,703.949707 
	C540.357727,680.567444 540.246704,657.183594 540.312744,632.871704 
z"/>
<path fill="#757575" opacity="1.000000" stroke="none" 
	d="
M592.090942,441.084229 
	C588.970642,443.974182 585.655579,445.553131 583.158325,447.975250 
	C572.677673,458.140503 562.416321,468.532928 552.132629,478.899628 
	C549.280457,481.774841 546.545593,484.683868 541.226501,483.970215 
	C540.374329,461.251556 540.247864,438.536835 540.296143,414.896362 
	C545.166687,414.659088 547.675598,411.329773 550.475220,408.529449 
	C560.801819,398.200470 571.025635,387.765015 581.535828,377.626343 
	C584.007263,375.242249 587.447876,373.862915 591.164795,372.012970 
	C592.015442,394.723419 592.143921,417.442200 592.090942,441.084229 
z"/>
<path fill="#1E1E1C" opacity="1.000000" stroke="none" 
	d="
M1743.754761,202.655853 
	C1741.435669,200.157715 1739.389771,198.343826 1738.081909,196.099792 
	C1734.614868,190.150772 1735.418457,182.613953 1739.706177,177.503433 
	C1743.944336,172.451920 1753.086548,170.100998 1759.908936,172.308289 
	C1765.420166,174.091400 1770.018555,181.106216 1770.081543,187.826080 
	C1770.225342,203.169647 1759.196289,209.738968 1743.754761,202.655853 
z"/>
</svg>